<mxfile host="app.diagrams.net" modified="2024-04-01T05:34:09.331Z" agent="Mozilla/5.0 (Macintosh; Intel Mac OS X 10_15_7) AppleWebKit/605.1.15 (KHTML, like Gecko) Version/17.4 Safari/605.1.15" etag="1qATT_cWML9QY3tl5Wz5" version="24.1.0" type="device">
  <diagram name="Page-1" id="QNVAXEFG_coX6fo7xSKH">
    <mxGraphModel dx="984" dy="667" grid="1" gridSize="10" guides="1" tooltips="1" connect="1" arrows="1" fold="1" page="1" pageScale="1" pageWidth="827" pageHeight="1169" math="0" shadow="0">
      <root>
        <mxCell id="0" />
        <mxCell id="1" parent="0" />
        <mxCell id="DXjjxYE0g-5OhmQiskfD-4" value="" style="strokeWidth=2;html=1;shape=mxgraph.flowchart.annotation_2;align=left;labelPosition=right;pointerEvents=1;rotation=90;fillColor=#fa6800;fontColor=#CC99FF;strokeColor=#C73500;" vertex="1" parent="1">
          <mxGeometry x="285" y="228.75" width="50" height="50" as="geometry" />
        </mxCell>
        <mxCell id="DXjjxYE0g-5OhmQiskfD-5" value="" style="strokeWidth=2;html=1;shape=mxgraph.flowchart.annotation_2;align=left;labelPosition=right;pointerEvents=1;rotation=90;fillColor=#fa6800;fontColor=#CC99FF;strokeColor=#C73500;" vertex="1" parent="1">
          <mxGeometry x="370" y="222.5" width="50" height="65" as="geometry" />
        </mxCell>
        <mxCell id="DXjjxYE0g-5OhmQiskfD-67" value="" style="strokeWidth=2;html=1;shape=mxgraph.flowchart.annotation_2;align=left;labelPosition=right;pointerEvents=1;rotation=90;fillColor=#fa6800;fontColor=#CC99FF;strokeColor=#C73500;" vertex="1" parent="1">
          <mxGeometry x="140" y="228.75" width="50" height="47.5" as="geometry" />
        </mxCell>
        <mxCell id="DXjjxYE0g-5OhmQiskfD-69" value="" style="strokeWidth=2;html=1;shape=mxgraph.flowchart.annotation_2;align=left;labelPosition=right;pointerEvents=1;rotation=90;fillColor=#fa6800;fontColor=#CC99FF;strokeColor=#C73500;" vertex="1" parent="1">
          <mxGeometry x="440" y="238.43" width="50" height="33.13" as="geometry" />
        </mxCell>
        <mxCell id="DXjjxYE0g-5OhmQiskfD-72" value="Pointer type" style="text;html=1;align=center;verticalAlign=middle;whiteSpace=wrap;rounded=0;fontStyle=1" vertex="1" parent="1">
          <mxGeometry x="135" y="190" width="60" height="30" as="geometry" />
        </mxCell>
        <mxCell id="DXjjxYE0g-5OhmQiskfD-78" value="&lt;span style=&quot;text-align: left;&quot;&gt;&lt;font size=&quot;5&quot;&gt;&lt;span style=&quot;caret-color: rgb(204, 0, 0);&quot;&gt;int *ptr = &amp;nbsp; &amp;nbsp; &amp;nbsp;(int *) &amp;nbsp; malloc(4);&lt;/span&gt;&lt;/font&gt;&lt;/span&gt;" style="text;html=1;align=center;verticalAlign=middle;whiteSpace=wrap;rounded=0;" vertex="1" parent="1">
          <mxGeometry x="144.38" y="280" width="365.62" height="30" as="geometry" />
        </mxCell>
        <mxCell id="DXjjxYE0g-5OhmQiskfD-83" value="Keyword" style="text;html=1;align=center;verticalAlign=middle;whiteSpace=wrap;rounded=0;fontSize=13;fontStyle=1" vertex="1" parent="1">
          <mxGeometry x="360" y="190" width="60" height="30" as="geometry" />
        </mxCell>
        <mxCell id="DXjjxYE0g-5OhmQiskfD-87" value="" style="strokeWidth=2;html=1;shape=mxgraph.flowchart.annotation_2;align=left;labelPosition=right;pointerEvents=1;rotation=90;fillColor=#fa6800;fontColor=#CC99FF;strokeColor=#C73500;" vertex="1" parent="1">
          <mxGeometry x="195" y="235" width="50" height="37.5" as="geometry" />
        </mxCell>
        <mxCell id="DXjjxYE0g-5OhmQiskfD-88" value="Pointer variable" style="text;html=1;align=center;verticalAlign=middle;whiteSpace=wrap;rounded=0;fontStyle=1" vertex="1" parent="1">
          <mxGeometry x="195" y="190" width="60" height="30" as="geometry" />
        </mxCell>
        <mxCell id="DXjjxYE0g-5OhmQiskfD-89" value="Size in bytes" style="text;html=1;align=center;verticalAlign=middle;whiteSpace=wrap;rounded=0;fontStyle=1" vertex="1" parent="1">
          <mxGeometry x="417" y="192.5" width="96" height="30" as="geometry" />
        </mxCell>
        <mxCell id="DXjjxYE0g-5OhmQiskfD-90" value="Type&lt;div&gt;conversion&lt;/div&gt;" style="text;html=1;align=center;verticalAlign=middle;whiteSpace=wrap;rounded=0;fontSize=13;fontStyle=1" vertex="1" parent="1">
          <mxGeometry x="280" y="190" width="60" height="30" as="geometry" />
        </mxCell>
      </root>
    </mxGraphModel>
  </diagram>
</mxfile>
